{
	"asset":{
		"generator":"Khronos glTF Blender I/O v3.6.27",
		"version":"2.0"
	},
	"scene":0,
	"scenes":[
		{
			"name":"Scene",
			"nodes":[
				0,
				1,
				2,
				3,
				4
			]
		}
	],
	"nodes":[
		{
			"mesh":0,
			"name":"t\u0131rt\u0131k tepe",
			"scale":[
				6.09499979019165,
				1.2949999570846558,
				1.2200000286102295
			],
			"translation":[
				0,
				1.5357338190078735,
				0
			]
		},
		{
			"mesh":1,
			"name":"Cube.002",
			"scale":[
				6.09499979019165,
				1.2949999570846558,
				1.2200000286102295
			],
			"translation":[
				0,
				1.5357338190078735,
				0
			]
		},
		{
			"mesh":2,
			"name":"Cube.001",
			"scale":[
				6.09499979019165,
				1.2949999570846558,
				1.2200000286102295
			],
			"translation":[
				0,
				1.5357338190078735,
				0
			]
		},
		{
			"mesh":3,
			"name":"Cube.003",
			"scale":[
				6.09499979019165,
				1.2949999570846558,
				1.2200000286102295
			],
			"translation":[
				0,
				1.5357338190078735,
				0
			]
		},
		{
			"mesh":4,
			"name":"Cube.004",
			"scale":[
				6.09499979019165,
				1.2949999570846558,
				1.2200000286102295
			],
			"translation":[
				0,
				1.5357338190078735,
				0
			]
		}
	],
	"materials":[
		{
			"doubleSided":true,
			"name":"Material.001",
			"pbrMetallicRoughness":{
				"baseColorFactor":[
					0.16794872283935547,
					0.1474023312330246,
					0.1474023312330246,
					1
				],
				"metallicFactor":0.748031497001648,
				"roughnessFactor":0.8070865869522095
			}
		}
	],
	"meshes":[
		{
			"name":"Cube.002",
			"primitives":[
				{
					"attributes":{
						"POSITION":0,
						"NORMAL":1,
						"TEXCOORD_0":2
					},
					"indices":3,
					"material":0
				}
			]
		},
		{
			"name":"Cube.003",
			"primitives":[
				{
					"attributes":{
						"POSITION":4,
						"NORMAL":5,
						"TEXCOORD_0":6
					},
					"indices":7,
					"material":0
				}
			]
		},
		{
			"name":"Cube.004",
			"primitives":[
				{
					"attributes":{
						"POSITION":8,
						"NORMAL":9,
						"TEXCOORD_0":10
					},
					"indices":11,
					"material":0
				}
			]
		},
		{
			"name":"Cube.001",
			"primitives":[
				{
					"attributes":{
						"POSITION":12,
						"NORMAL":13,
						"TEXCOORD_0":14
					},
					"indices":15,
					"material":0
				}
			]
		},
		{
			"name":"Cube.005",
			"primitives":[
				{
					"attributes":{
						"POSITION":16,
						"NORMAL":17,
						"TEXCOORD_0":18
					},
					"indices":19,
					"material":0
				}
			]
		}
	],
	"accessors":[
		{
			"bufferView":0,
			"componentType":5126,
			"count":10725,
			"max":[
				0.949999988079071,
				0.9977414608001709,
				0.8360655903816223
			],
			"min":[
				-0.949999988079071,
				0.92277991771698,
				-0.8360655903816223
			],
			"type":"VEC3"
		},
		{
			"bufferView":1,
			"componentType":5126,
			"count":10725,
			"type":"VEC3"
		},
		{
			"bufferView":2,
			"componentType":5126,
			"count":10725,
			"type":"VEC2"
		},
		{
			"bufferView":3,
			"componentType":5123,
			"count":46986,
			"type":"SCALAR"
		},
		{
			"bufferView":4,
			"componentType":5126,
			"count":48,
			"max":[
				-0.9835931062698364,
				0.8035122752189636,
				0.794018030166626
			],
			"min":[
				-0.9917965531349182,
				-0.8035122752189636,
				-0.794018030166626
			],
			"type":"VEC3"
		},
		{
			"bufferView":5,
			"componentType":5126,
			"count":48,
			"type":"VEC3"
		},
		{
			"bufferView":6,
			"componentType":5126,
			"count":48,
			"type":"VEC2"
		},
		{
			"bufferView":7,
			"componentType":5123,
			"count":72,
			"type":"SCALAR"
		},
		{
			"bufferView":8,
			"componentType":5126,
			"count":244,
			"max":[
				1,
				1,
				1
			],
			"min":[
				-1,
				-1,
				-1
			],
			"type":"VEC3"
		},
		{
			"bufferView":9,
			"componentType":5126,
			"count":244,
			"type":"VEC3"
		},
		{
			"bufferView":10,
			"componentType":5126,
			"count":244,
			"type":"VEC2"
		},
		{
			"bufferView":11,
			"componentType":5123,
			"count":504,
			"type":"SCALAR"
		},
		{
			"bufferView":12,
			"componentType":5126,
			"count":40684,
			"max":[
				0.949999988079071,
				0.84555983543396,
				-0.9180327653884888
			],
			"min":[
				-0.949999988079071,
				-0.84555983543396,
				-0.993766725063324
			],
			"type":"VEC3"
		},
		{
			"bufferView":13,
			"componentType":5126,
			"count":40684,
			"type":"VEC3"
		},
		{
			"bufferView":14,
			"componentType":5126,
			"count":40684,
			"type":"VEC2"
		},
		{
			"bufferView":15,
			"componentType":5123,
			"count":60846,
			"type":"SCALAR"
		},
		{
			"bufferView":16,
			"componentType":5126,
			"count":8524,
			"max":[
				0.949999988079071,
				0.84555983543396,
				0.9905409216880798
			],
			"min":[
				-0.949999988079071,
				-0.84555983543396,
				0.9180327653884888
			],
			"type":"VEC3"
		},
		{
			"bufferView":17,
			"componentType":5126,
			"count":8524,
			"type":"VEC3"
		},
		{
			"bufferView":18,
			"componentType":5126,
			"count":8524,
			"type":"VEC2"
		},
		{
			"bufferView":19,
			"componentType":5123,
			"count":39966,
			"type":"SCALAR"
		}
	],
	"bufferViews":[
		{
			"buffer":0,
			"byteLength":128700,
			"byteOffset":0,
			"target":34962
		},
		{
			"buffer":0,
			"byteLength":128700,
			"byteOffset":128700,
			"target":34962
		},
		{
			"buffer":0,
			"byteLength":85800,
			"byteOffset":257400,
			"target":34962
		},
		{
			"buffer":0,
			"byteLength":93972,
			"byteOffset":343200,
			"target":34963
		},
		{
			"buffer":0,
			"byteLength":576,
			"byteOffset":437172,
			"target":34962
		},
		{
			"buffer":0,
			"byteLength":576,
			"byteOffset":437748,
			"target":34962
		},
		{
			"buffer":0,
			"byteLength":384,
			"byteOffset":438324,
			"target":34962
		},
		{
			"buffer":0,
			"byteLength":144,
			"byteOffset":438708,
			"target":34963
		},
		{
			"buffer":0,
			"byteLength":2928,
			"byteOffset":438852,
			"target":34962
		},
		{
			"buffer":0,
			"byteLength":2928,
			"byteOffset":441780,
			"target":34962
		},
		{
			"buffer":0,
			"byteLength":1952,
			"byteOffset":444708,
			"target":34962
		},
		{
			"buffer":0,
			"byteLength":1008,
			"byteOffset":446660,
			"target":34963
		},
		{
			"buffer":0,
			"byteLength":488208,
			"byteOffset":447668,
			"target":34962
		},
		{
			"buffer":0,
			"byteLength":488208,
			"byteOffset":935876,
			"target":34962
		},
		{
			"buffer":0,
			"byteLength":325472,
			"byteOffset":1424084,
			"target":34962
		},
		{
			"buffer":0,
			"byteLength":121692,
			"byteOffset":1749556,
			"target":34963
		},
		{
			"buffer":0,
			"byteLength":102288,
			"byteOffset":1871248,
			"target":34962
		},
		{
			"buffer":0,
			"byteLength":102288,
			"byteOffset":1973536,
			"target":34962
		},
		{
			"buffer":0,
			"byteLength":68192,
			"byteOffset":2075824,
			"target":34962
		},
		{
			"buffer":0,
			"byteLength":79932,
			"byteOffset":2144016,
			"target":34963
		}
	],
	"buffers":[
		{
			"byteLength":2223948,
			"uri":"data:application/octet-stream;base64,"
		}
	]
}
